<svg id="Capa_1" enable-background="new 0 0 501 501" height="512" viewBox="0 0 501 501" width="512" xmlns="http://www.w3.org/2000/svg"><g><path d="m426.198 426.749c-12.555 12.916-30.829 18.587-48.528 15.244-40.084-7.571-82.816-11.659-127.17-11.659-48.872 0-95.775 4.963-139.336 14.081-8.931 1.869-18.254-.596-25.02-6.72-23.163-20.965-42.298-46.298-56.107-74.698l-10.904-89.291c-.837-6.858-6.66-12.012-13.569-12.012-.042-1.894-.064-3.791-.064-5.694 0-135.132 109.403-244.713 244.469-245 35.285-.075 68.812 7.237 99.113 20.493 2.834 1.24 1.767 5.663 4.544 7.006 26.053 12.6 53.749 29.803 73.625 50.375 1.22 1.263 2.066-.722 3.259.567 39.651 42.846 64.121 100.008 64.969 163.194.907 67.725-25.668 129.244-69.281 174.114z" fill="#002c5d"/><path d="m144.5 70c0 5.523-4.477 10-10 10s-10-4.477-10-10 4.477-10 10-10 10 4.477 10 10zm-60 90c-5.523 0-10 4.477-10 10s4.477 10 10 10 10-4.477 10-10-4.477-10-10-10zm360 0c-5.523 0-10 4.477-10 10s4.477 10 10 10 10-4.477 10-10-4.477-10-10-10z" fill="#54469b"/><path d="m104.5 370c0 5.523-4.477 10-10 10s-10-4.477-10-10 4.477-10 10-10 10 4.477 10 10zm310-160c-5.523 0-10 4.477-10 10s4.477 10 10 10 10-4.477 10-10-4.477-10-10-10z" fill="#49b4fa"/><path d="m407.419 67.525c3.015 2.513.869 7.439-3.017 6.884-4.668-.667-9.342-.375-13.901 1.457-34.814 13.987-6.102 96.027-56 144-3.537 3.401-31.645 29.285-68 28-37.358-1.321-49.932-31.593-76-25.333-28.251 6.784-26.675 45.062-57 52.333-25.785 6.183-37.736-18.886-58-10.667-26.369 10.696-48.591 70.329-52 70.667-1.621.161-12.318-77.063-9.188-79.188 38.872-26.393 109.648-50.226 142.188-117.812 4.699-9.761 19.078-42.282 47-80 21.781-29.422 31.672-34.814 40-34 21.893 2.141 20.885 45.993 44 52 19.987 5.194 36.789-23.421 61.574-44.362 21.309 9.298 40.853 21.44 58.344 36.021z" fill="#31662b"/><path d="m246.5 250c-7.18 0-13-5.82-13-13v-224c0-7.18 5.82-13 13-13 7.18 0 13 5.82 13 13v224c0 7.18-5.82 13-13 13zm184-133v-27.549c-8.064-8.728-16.754-16.84-26-24.321v51.87c0 7.18 5.82 13 13 13s13-5.82 13-13zm-412 155.5c-5.254 0-8.156 33.961-4.802 46.583 4.059 15.275 9.556 29.965 16.339 43.914.935-1.794 1.463-3.834 1.463-5.997v-71.5c0-7.18-5.82-13-13-13zm70 34.5v-71.5c0-7.18-5.82-13-13-13-7.18 0-13 5.82-13 13v71.5c0 7.18 5.82 13 13 13 7.18 0 13-5.82 13-13z" fill="#46853e"/><path d="m246.5 160c-7.18 0-13-5.82-13-13v-134c0-7.18 5.82-13 13-13 7.18 0 13 5.82 13 13v134c0 7.18-5.82 13-13 13zm70 107v-154c0-7.18-5.82-13-13-13-7.18 0-13 5.82-13 13v154c0 7.18 5.82 13 13 13 7.18 0 13-5.82 13-13zm57-87.5v-134c0-7.18-5.82-13-13-13-7.18 0-13 5.82-13 13v134c0 7.18 5.82 13 13 13 7.18 0 13-5.82 13-13zm-171 50v-134c0-7.18-5.82-13-13-13-7.18 0-13 5.82-13 13v134c0 7.18 5.82 13 13 13 7.18 0 13-5.82 13-13zm-114 27.5v-44c0-7.18-5.82-13-13-13-7.18 0-13 5.82-13 13v44c0 7.18 5.82 13 13 13 7.18 0 13-5.82 13-13zm57 10v-134c0-7.18-5.82-13-13-13-7.18 0-13 5.82-13 13v134c0 7.18 5.82 13 13 13 7.18 0 13-5.82 13-13z" fill="#07b128"/><path d="m259.5 13v54c0 7.18-5.82 13-13 13s-13-5.82-13-13v-54c0-7.18 5.82-13 13-13s13 5.82 13 13zm-70 69.5c-7.18 0-13 5.82-13 13v54c0 7.18 5.82 13 13 13s13-5.82 13-13v-54c0-7.18-5.82-13-13-13zm114 17.5c-7.18 0-13 5.82-13 13v54c0 7.18 5.82 13 13 13s13-5.82 13-13v-54c0-7.18-5.82-13-13-13zm57-67.5c-7.18 0-13 5.82-13 13v54c0 7.18 5.82 13 13 13s13-5.82 13-13v-54c0-7.18-5.82-13-13-13zm-342 217.5c-6.739 0-12.28 5.127-12.935 11.693.452 19.8 3.252 39.02 8.134 57.392 1.485.59 3.105.916 4.801.916 7.18 0 13-5.82 13-13v-44c0-7.181-5.82-13.001-13-13.001zm114-130c-7.18 0-13 5.82-13 13v54c0 7.18 5.82 13 13 13s13-5.82 13-13v-54c0-7.18-5.82-13-13-13z" fill="#a1e52e"/><path d="m437.515 434.644c-7.443 1.26-15.033 2.309-22.751 3.134-43.455 39.292-101.065 63.222-164.264 63.222-63.538 0-121.427-24.187-164.962-63.856 50.886-11.696 106.584-18.144 164.962-18.144 17.413 0 34.588.574 51.468 1.689 3.672-16.016 10.345-33.401 19.599-49.731-.78-.126-1.557-.254-2.333-.386-3.849-.652-6.396-4.353-5.629-8.18 3.922-19.565 13.508-42.069 27.586-60.71-1.868-.266-3.722-.554-5.56-.866-2.669-.452-4.435-3.018-3.903-5.672 4.249-21.193 18.08-47.358 38.398-60.519 1.574-1.02 3.607-1.02 5.181 0 20.318 13.161 34.149 39.326 38.397 60.519.532 2.654-1.234 5.22-3.903 5.672-1.838.312-3.691.6-5.56.866 14.077 18.641 23.663 41.145 27.585 60.71.767 3.827-1.78 7.528-5.629 8.18-.776.131-1.553.26-2.333.386 10.039 17.715 17.04 36.671 20.469 53.775.931 4.637-2.155 9.121-6.818 9.911z" fill="#528ed7"/><path d="m400.231 449.936c-41.405 32.014-93.343 51.064-149.731 51.064-11.786 0-23.378-.833-34.719-2.441-.167-.093-.334-.186-.501-.279-19.284-10.756-13.762-39.865 8.082-43.09 35.467-5.236 72.698-8.024 111.089-8.024 22.359 0 44.326.945 65.78 2.77zm44.112-25.162c-3.426-17.114-10.43-36.087-20.477-53.816-16.314 2.632-33.46 4.036-51.149 4.036-4.571 0-9.106-.094-13.6-.278-5.83-.239-11.22 3.164-13.539 8.518-.067.155-.134.31-.201.465-8.022 18.643 3.182 39.959 23.148 43.599 16.619 3.03 33.815 5.211 51.454 6.447 5.867.412 11.699.712 17.492.906l.083-.014c4.662-.791 7.717-5.227 6.789-9.863zm-18.111-54.208-.069.012c-4.781-.16-9.595-.408-14.438-.748-14.486-1.016-28.611-2.803-42.265-5.284-16.445-2.989-25.958-20.536-19.363-35.895 2.502-5.827 5.38-11.69 8.607-17.476 2.531-4.54 7.338-7.331 12.536-7.298.492.003.984.005 1.477.005 10.849 0 21.404-.761 31.525-2.2 14.07 18.63 23.653 41.119 27.579 60.677.769 3.832-1.736 7.551-5.589 8.207zm-47.333-133.43c-9.252 10.374-16.711 22.603-21.867 34.61-4.582 10.669 2.006 22.816 13.43 24.892 9.467 1.721 19.26 2.959 29.304 3.664 3.358.235 6.695.407 10.011.518.016-.003.032-.005.048-.008 2.664-.451 4.41-3.028 3.878-5.677-3.995-19.917-16.453-44.223-34.804-57.999z" fill="#81ade2"/><path d="m224.5 290c0 5.523-4.477 10-10 10s-10-4.477-10-10 4.477-10 10-10 10 4.477 10 10z" fill="#fdf385"/><path d="m464.5 260c0 5.523-4.477 10-10 10s-10-4.477-10-10 4.477-10 10-10 10 4.477 10 10z" fill="#f5c02c"/><path d="m84.5 130c0 5.523-4.477 10-10 10s-10-4.477-10-10 4.477-10 10-10 10 4.477 10 10z" fill="#f19b0b"/><path d="m320.172 460h-155.343c-5.513 0-9.677-4.998-8.682-10.42l8.871-48.329c6.864-37.397 39.46-64.555 77.482-64.555 38.022 0 70.618 27.158 77.482 64.555l8.871 48.329c.995 5.422-3.168 10.42-8.681 10.42z" fill="#8f4d24"/><path d="m196.749 460h-42.246c-6.246 0-10.963-5.662-9.836-11.805l10.058-54.797c7.772-42.344 44.68-73.094 87.731-73.094h.088c4.842.002 9.606.393 14.26 1.146l-12.021 70.178c-5.214 30.445-23.538 55.3-48.034 68.372z" fill="#f19b0b"/><path d="m174.753 460h-20.25c-5.53 0-9.861-4.678-9.999-10.244.014-.515.067-1.036.164-1.561l10.058-54.797c6.597-35.944 34.188-63.533 68.71-71.052-24.708 12.786-43.216 37.337-48.46 67.451l-10.058 57.76c-1.129 6.475 3.589 12.443 9.835 12.443z" fill="#d98800"/><path d="m242.456 320.303h.088c43.058.021 79.965 30.782 87.739 73.137l10.05 54.755c1.128 6.143-3.59 11.805-9.836 11.805h-42.245c-24.496-13.072-42.82-37.927-48.035-68.373l-12.021-70.178c4.654-.752 9.419-1.144 14.26-1.146z" fill="#f5c02c"/></g></svg>